%TF.GenerationSoftware,KiCad,Pcbnew,10.0.0*%
%TF.CreationDate,2026-05-07T22:16:36-05:00*%
%TF.ProjectId,First PCB_led macondo,46697273-7420-4504-9342-5f6c6564206d,rev?*%
%TF.SameCoordinates,Original*%
%TF.FileFunction,Soldermask,Top*%
%TF.FilePolarity,Negative*%
%FSLAX46Y46*%
G04 Gerber Fmt 4.6, Leading zero omitted, Abs format (unit mm)*
G04 Created by KiCad (PCBNEW 10.0.0) date 2026-05-07 22:16:36*
%MOMM*%
%LPD*%
G01*
G04 APERTURE LIST*
G04 Aperture macros list*
%AMRoundRect*
0 Rectangle with rounded corners*
0 $1 Rounding radius*
0 $2 $3 $4 $5 $6 $7 $8 $9 X,Y pos of 4 corners*
0 Add a 4 corners polygon primitive as box body*
4,1,4,$2,$3,$4,$5,$6,$7,$8,$9,$2,$3,0*
0 Add four circle primitives for the rounded corners*
1,1,$1+$1,$2,$3*
1,1,$1+$1,$4,$5*
1,1,$1+$1,$6,$7*
1,1,$1+$1,$8,$9*
0 Add four rect primitives between the rounded corners*
20,1,$1+$1,$2,$3,$4,$5,0*
20,1,$1+$1,$4,$5,$6,$7,0*
20,1,$1+$1,$6,$7,$8,$9,0*
20,1,$1+$1,$8,$9,$2,$3,0*%
G04 Aperture macros list end*
%ADD10C,0.150000*%
%ADD11RoundRect,0.250001X-1.399999X-3.049999X1.399999X-3.049999X1.399999X3.049999X-1.399999X3.049999X0*%
%ADD12O,3.300000X6.600000*%
%ADD13RoundRect,0.100000X0.130000X0.100000X-0.130000X0.100000X-0.130000X-0.100000X0.130000X-0.100000X0*%
%ADD14RoundRect,0.100000X0.217500X0.100000X-0.217500X0.100000X-0.217500X-0.100000X0.217500X-0.100000X0*%
G04 APERTURE END LIST*
D10*
X110598684Y-117465057D02*
X111360588Y-117465057D01*
X89836779Y-117488866D02*
X90598684Y-117488866D01*
X90217731Y-117869819D02*
X90217731Y-117107914D01*
X93908207Y-115869819D02*
X93574874Y-115393628D01*
X93336779Y-115869819D02*
X93336779Y-114869819D01*
X93336779Y-114869819D02*
X93717731Y-114869819D01*
X93717731Y-114869819D02*
X93812969Y-114917438D01*
X93812969Y-114917438D02*
X93860588Y-114965057D01*
X93860588Y-114965057D02*
X93908207Y-115060295D01*
X93908207Y-115060295D02*
X93908207Y-115203152D01*
X93908207Y-115203152D02*
X93860588Y-115298390D01*
X93860588Y-115298390D02*
X93812969Y-115346009D01*
X93812969Y-115346009D02*
X93717731Y-115393628D01*
X93717731Y-115393628D02*
X93336779Y-115393628D01*
X94860588Y-115869819D02*
X94289160Y-115869819D01*
X94574874Y-115869819D02*
X94574874Y-114869819D01*
X94574874Y-114869819D02*
X94479636Y-115012676D01*
X94479636Y-115012676D02*
X94384398Y-115107914D01*
X94384398Y-115107914D02*
X94289160Y-115155533D01*
X104312969Y-114869819D02*
X103836779Y-114869819D01*
X103836779Y-114869819D02*
X103836779Y-113869819D01*
X104646303Y-114346009D02*
X104979636Y-114346009D01*
X105122493Y-114869819D02*
X104646303Y-114869819D01*
X104646303Y-114869819D02*
X104646303Y-113869819D01*
X104646303Y-113869819D02*
X105122493Y-113869819D01*
X105551065Y-114869819D02*
X105551065Y-113869819D01*
X105551065Y-113869819D02*
X105789160Y-113869819D01*
X105789160Y-113869819D02*
X105932017Y-113917438D01*
X105932017Y-113917438D02*
X106027255Y-114012676D01*
X106027255Y-114012676D02*
X106074874Y-114107914D01*
X106074874Y-114107914D02*
X106122493Y-114298390D01*
X106122493Y-114298390D02*
X106122493Y-114441247D01*
X106122493Y-114441247D02*
X106074874Y-114631723D01*
X106074874Y-114631723D02*
X106027255Y-114726961D01*
X106027255Y-114726961D02*
X105932017Y-114822200D01*
X105932017Y-114822200D02*
X105789160Y-114869819D01*
X105789160Y-114869819D02*
X105551065Y-114869819D01*
D11*
%TO.C,U1*%
X96025000Y-123890000D03*
D12*
X105525000Y-123890000D03*
%TD*%
D13*
%TO.C,R1*%
X96475000Y-115500000D03*
X95835000Y-115500000D03*
%TD*%
D14*
%TO.C,D1*%
X106315000Y-115500000D03*
X105500000Y-115500000D03*
%TD*%
M02*
