%TF.GenerationSoftware,KiCad,Pcbnew,10.0.0*%
%TF.CreationDate,2026-05-07T22:16:36-05:00*%
%TF.ProjectId,First PCB_led macondo,46697273-7420-4504-9342-5f6c6564206d,rev?*%
%TF.SameCoordinates,Original*%
%TF.FileFunction,Soldermask,Bot*%
%TF.FilePolarity,Negative*%
%FSLAX46Y46*%
G04 Gerber Fmt 4.6, Leading zero omitted, Abs format (unit mm)*
G04 Created by KiCad (PCBNEW 10.0.0) date 2026-05-07 22:16:36*
%MOMM*%
%LPD*%
G01*
G04 APERTURE LIST*
G04 Aperture macros list*
%AMRoundRect*
0 Rectangle with rounded corners*
0 $1 Rounding radius*
0 $2 $3 $4 $5 $6 $7 $8 $9 X,Y pos of 4 corners*
0 Add a 4 corners polygon primitive as box body*
4,1,4,$2,$3,$4,$5,$6,$7,$8,$9,$2,$3,0*
0 Add four circle primitives for the rounded corners*
1,1,$1+$1,$2,$3*
1,1,$1+$1,$4,$5*
1,1,$1+$1,$6,$7*
1,1,$1+$1,$8,$9*
0 Add four rect primitives between the rounded corners*
20,1,$1+$1,$2,$3,$4,$5,0*
20,1,$1+$1,$4,$5,$6,$7,0*
20,1,$1+$1,$6,$7,$8,$9,0*
20,1,$1+$1,$8,$9,$2,$3,0*%
G04 Aperture macros list end*
%ADD10C,0.150000*%
%ADD11RoundRect,0.250001X-1.399999X-3.049999X1.399999X-3.049999X1.399999X3.049999X-1.399999X3.049999X0*%
%ADD12O,3.300000X6.600000*%
G04 APERTURE END LIST*
D10*
X112329887Y-113346009D02*
X112663220Y-113346009D01*
X112663220Y-113869819D02*
X112663220Y-112869819D01*
X112663220Y-112869819D02*
X112187030Y-112869819D01*
X111806077Y-113869819D02*
X111806077Y-113203152D01*
X111806077Y-112869819D02*
X111853696Y-112917438D01*
X111853696Y-112917438D02*
X111806077Y-112965057D01*
X111806077Y-112965057D02*
X111758458Y-112917438D01*
X111758458Y-112917438D02*
X111806077Y-112869819D01*
X111806077Y-112869819D02*
X111806077Y-112965057D01*
X111329887Y-113869819D02*
X111329887Y-113203152D01*
X111329887Y-113393628D02*
X111282268Y-113298390D01*
X111282268Y-113298390D02*
X111234649Y-113250771D01*
X111234649Y-113250771D02*
X111139411Y-113203152D01*
X111139411Y-113203152D02*
X111044173Y-113203152D01*
X110758458Y-113822200D02*
X110663220Y-113869819D01*
X110663220Y-113869819D02*
X110472744Y-113869819D01*
X110472744Y-113869819D02*
X110377506Y-113822200D01*
X110377506Y-113822200D02*
X110329887Y-113726961D01*
X110329887Y-113726961D02*
X110329887Y-113679342D01*
X110329887Y-113679342D02*
X110377506Y-113584104D01*
X110377506Y-113584104D02*
X110472744Y-113536485D01*
X110472744Y-113536485D02*
X110615601Y-113536485D01*
X110615601Y-113536485D02*
X110710839Y-113488866D01*
X110710839Y-113488866D02*
X110758458Y-113393628D01*
X110758458Y-113393628D02*
X110758458Y-113346009D01*
X110758458Y-113346009D02*
X110710839Y-113250771D01*
X110710839Y-113250771D02*
X110615601Y-113203152D01*
X110615601Y-113203152D02*
X110472744Y-113203152D01*
X110472744Y-113203152D02*
X110377506Y-113250771D01*
X110044172Y-113203152D02*
X109663220Y-113203152D01*
X109901315Y-112869819D02*
X109901315Y-113726961D01*
X109901315Y-113726961D02*
X109853696Y-113822200D01*
X109853696Y-113822200D02*
X109758458Y-113869819D01*
X109758458Y-113869819D02*
X109663220Y-113869819D01*
X108567981Y-113869819D02*
X108567981Y-112869819D01*
X108567981Y-112869819D02*
X108187029Y-112869819D01*
X108187029Y-112869819D02*
X108091791Y-112917438D01*
X108091791Y-112917438D02*
X108044172Y-112965057D01*
X108044172Y-112965057D02*
X107996553Y-113060295D01*
X107996553Y-113060295D02*
X107996553Y-113203152D01*
X107996553Y-113203152D02*
X108044172Y-113298390D01*
X108044172Y-113298390D02*
X108091791Y-113346009D01*
X108091791Y-113346009D02*
X108187029Y-113393628D01*
X108187029Y-113393628D02*
X108567981Y-113393628D01*
X106996553Y-113774580D02*
X107044172Y-113822200D01*
X107044172Y-113822200D02*
X107187029Y-113869819D01*
X107187029Y-113869819D02*
X107282267Y-113869819D01*
X107282267Y-113869819D02*
X107425124Y-113822200D01*
X107425124Y-113822200D02*
X107520362Y-113726961D01*
X107520362Y-113726961D02*
X107567981Y-113631723D01*
X107567981Y-113631723D02*
X107615600Y-113441247D01*
X107615600Y-113441247D02*
X107615600Y-113298390D01*
X107615600Y-113298390D02*
X107567981Y-113107914D01*
X107567981Y-113107914D02*
X107520362Y-113012676D01*
X107520362Y-113012676D02*
X107425124Y-112917438D01*
X107425124Y-112917438D02*
X107282267Y-112869819D01*
X107282267Y-112869819D02*
X107187029Y-112869819D01*
X107187029Y-112869819D02*
X107044172Y-112917438D01*
X107044172Y-112917438D02*
X106996553Y-112965057D01*
X106234648Y-113346009D02*
X106091791Y-113393628D01*
X106091791Y-113393628D02*
X106044172Y-113441247D01*
X106044172Y-113441247D02*
X105996553Y-113536485D01*
X105996553Y-113536485D02*
X105996553Y-113679342D01*
X105996553Y-113679342D02*
X106044172Y-113774580D01*
X106044172Y-113774580D02*
X106091791Y-113822200D01*
X106091791Y-113822200D02*
X106187029Y-113869819D01*
X106187029Y-113869819D02*
X106567981Y-113869819D01*
X106567981Y-113869819D02*
X106567981Y-112869819D01*
X106567981Y-112869819D02*
X106234648Y-112869819D01*
X106234648Y-112869819D02*
X106139410Y-112917438D01*
X106139410Y-112917438D02*
X106091791Y-112965057D01*
X106091791Y-112965057D02*
X106044172Y-113060295D01*
X106044172Y-113060295D02*
X106044172Y-113155533D01*
X106044172Y-113155533D02*
X106091791Y-113250771D01*
X106091791Y-113250771D02*
X106139410Y-113298390D01*
X106139410Y-113298390D02*
X106234648Y-113346009D01*
X106234648Y-113346009D02*
X106567981Y-113346009D01*
X105520362Y-113822200D02*
X105520362Y-113869819D01*
X105520362Y-113869819D02*
X105567981Y-113965057D01*
X105567981Y-113965057D02*
X105615600Y-114012676D01*
X104377505Y-113822200D02*
X104282267Y-113869819D01*
X104282267Y-113869819D02*
X104091791Y-113869819D01*
X104091791Y-113869819D02*
X103996553Y-113822200D01*
X103996553Y-113822200D02*
X103948934Y-113726961D01*
X103948934Y-113726961D02*
X103948934Y-113679342D01*
X103948934Y-113679342D02*
X103996553Y-113584104D01*
X103996553Y-113584104D02*
X104091791Y-113536485D01*
X104091791Y-113536485D02*
X104234648Y-113536485D01*
X104234648Y-113536485D02*
X104329886Y-113488866D01*
X104329886Y-113488866D02*
X104377505Y-113393628D01*
X104377505Y-113393628D02*
X104377505Y-113346009D01*
X104377505Y-113346009D02*
X104329886Y-113250771D01*
X104329886Y-113250771D02*
X104234648Y-113203152D01*
X104234648Y-113203152D02*
X104091791Y-113203152D01*
X104091791Y-113203152D02*
X103996553Y-113250771D01*
X103520362Y-113869819D02*
X103520362Y-113203152D01*
X103520362Y-112869819D02*
X103567981Y-112917438D01*
X103567981Y-112917438D02*
X103520362Y-112965057D01*
X103520362Y-112965057D02*
X103472743Y-112917438D01*
X103472743Y-112917438D02*
X103520362Y-112869819D01*
X103520362Y-112869819D02*
X103520362Y-112965057D01*
X103044172Y-113869819D02*
X103044172Y-113203152D01*
X103044172Y-113298390D02*
X102996553Y-113250771D01*
X102996553Y-113250771D02*
X102901315Y-113203152D01*
X102901315Y-113203152D02*
X102758458Y-113203152D01*
X102758458Y-113203152D02*
X102663220Y-113250771D01*
X102663220Y-113250771D02*
X102615601Y-113346009D01*
X102615601Y-113346009D02*
X102615601Y-113869819D01*
X102615601Y-113346009D02*
X102567982Y-113250771D01*
X102567982Y-113250771D02*
X102472744Y-113203152D01*
X102472744Y-113203152D02*
X102329887Y-113203152D01*
X102329887Y-113203152D02*
X102234648Y-113250771D01*
X102234648Y-113250771D02*
X102187029Y-113346009D01*
X102187029Y-113346009D02*
X102187029Y-113869819D01*
X101710839Y-113203152D02*
X101710839Y-114203152D01*
X101710839Y-113250771D02*
X101615601Y-113203152D01*
X101615601Y-113203152D02*
X101425125Y-113203152D01*
X101425125Y-113203152D02*
X101329887Y-113250771D01*
X101329887Y-113250771D02*
X101282268Y-113298390D01*
X101282268Y-113298390D02*
X101234649Y-113393628D01*
X101234649Y-113393628D02*
X101234649Y-113679342D01*
X101234649Y-113679342D02*
X101282268Y-113774580D01*
X101282268Y-113774580D02*
X101329887Y-113822200D01*
X101329887Y-113822200D02*
X101425125Y-113869819D01*
X101425125Y-113869819D02*
X101615601Y-113869819D01*
X101615601Y-113869819D02*
X101710839Y-113822200D01*
X100663220Y-113869819D02*
X100758458Y-113822200D01*
X100758458Y-113822200D02*
X100806077Y-113726961D01*
X100806077Y-113726961D02*
X100806077Y-112869819D01*
X99901315Y-113822200D02*
X99996553Y-113869819D01*
X99996553Y-113869819D02*
X100187029Y-113869819D01*
X100187029Y-113869819D02*
X100282267Y-113822200D01*
X100282267Y-113822200D02*
X100329886Y-113726961D01*
X100329886Y-113726961D02*
X100329886Y-113346009D01*
X100329886Y-113346009D02*
X100282267Y-113250771D01*
X100282267Y-113250771D02*
X100187029Y-113203152D01*
X100187029Y-113203152D02*
X99996553Y-113203152D01*
X99996553Y-113203152D02*
X99901315Y-113250771D01*
X99901315Y-113250771D02*
X99853696Y-113346009D01*
X99853696Y-113346009D02*
X99853696Y-113441247D01*
X99853696Y-113441247D02*
X100329886Y-113536485D01*
X98663219Y-113869819D02*
X98663219Y-112869819D01*
X98663219Y-113250771D02*
X98567981Y-113203152D01*
X98567981Y-113203152D02*
X98377505Y-113203152D01*
X98377505Y-113203152D02*
X98282267Y-113250771D01*
X98282267Y-113250771D02*
X98234648Y-113298390D01*
X98234648Y-113298390D02*
X98187029Y-113393628D01*
X98187029Y-113393628D02*
X98187029Y-113679342D01*
X98187029Y-113679342D02*
X98234648Y-113774580D01*
X98234648Y-113774580D02*
X98282267Y-113822200D01*
X98282267Y-113822200D02*
X98377505Y-113869819D01*
X98377505Y-113869819D02*
X98567981Y-113869819D01*
X98567981Y-113869819D02*
X98663219Y-113822200D01*
X97329886Y-113203152D02*
X97329886Y-113869819D01*
X97758457Y-113203152D02*
X97758457Y-113726961D01*
X97758457Y-113726961D02*
X97710838Y-113822200D01*
X97710838Y-113822200D02*
X97615600Y-113869819D01*
X97615600Y-113869819D02*
X97472743Y-113869819D01*
X97472743Y-113869819D02*
X97377505Y-113822200D01*
X97377505Y-113822200D02*
X97329886Y-113774580D01*
X96996552Y-113203152D02*
X96615600Y-113203152D01*
X96853695Y-112869819D02*
X96853695Y-113726961D01*
X96853695Y-113726961D02*
X96806076Y-113822200D01*
X96806076Y-113822200D02*
X96710838Y-113869819D01*
X96710838Y-113869819D02*
X96615600Y-113869819D01*
X95520361Y-113203152D02*
X95520361Y-114060295D01*
X95520361Y-114060295D02*
X95567980Y-114155533D01*
X95567980Y-114155533D02*
X95663218Y-114203152D01*
X95663218Y-114203152D02*
X95710837Y-114203152D01*
X95520361Y-112869819D02*
X95567980Y-112917438D01*
X95567980Y-112917438D02*
X95520361Y-112965057D01*
X95520361Y-112965057D02*
X95472742Y-112917438D01*
X95472742Y-112917438D02*
X95520361Y-112869819D01*
X95520361Y-112869819D02*
X95520361Y-112965057D01*
X94615600Y-113203152D02*
X94615600Y-113869819D01*
X95044171Y-113203152D02*
X95044171Y-113726961D01*
X95044171Y-113726961D02*
X94996552Y-113822200D01*
X94996552Y-113822200D02*
X94901314Y-113869819D01*
X94901314Y-113869819D02*
X94758457Y-113869819D01*
X94758457Y-113869819D02*
X94663219Y-113822200D01*
X94663219Y-113822200D02*
X94615600Y-113774580D01*
X94187028Y-113822200D02*
X94091790Y-113869819D01*
X94091790Y-113869819D02*
X93901314Y-113869819D01*
X93901314Y-113869819D02*
X93806076Y-113822200D01*
X93806076Y-113822200D02*
X93758457Y-113726961D01*
X93758457Y-113726961D02*
X93758457Y-113679342D01*
X93758457Y-113679342D02*
X93806076Y-113584104D01*
X93806076Y-113584104D02*
X93901314Y-113536485D01*
X93901314Y-113536485D02*
X94044171Y-113536485D01*
X94044171Y-113536485D02*
X94139409Y-113488866D01*
X94139409Y-113488866D02*
X94187028Y-113393628D01*
X94187028Y-113393628D02*
X94187028Y-113346009D01*
X94187028Y-113346009D02*
X94139409Y-113250771D01*
X94139409Y-113250771D02*
X94044171Y-113203152D01*
X94044171Y-113203152D02*
X93901314Y-113203152D01*
X93901314Y-113203152D02*
X93806076Y-113250771D01*
X93472742Y-113203152D02*
X93091790Y-113203152D01*
X93329885Y-112869819D02*
X93329885Y-113726961D01*
X93329885Y-113726961D02*
X93282266Y-113822200D01*
X93282266Y-113822200D02*
X93187028Y-113869819D01*
X93187028Y-113869819D02*
X93091790Y-113869819D01*
X92091789Y-113203152D02*
X91901313Y-113869819D01*
X91901313Y-113869819D02*
X91710837Y-113393628D01*
X91710837Y-113393628D02*
X91520361Y-113869819D01*
X91520361Y-113869819D02*
X91329885Y-113203152D01*
X90520361Y-113869819D02*
X90520361Y-113346009D01*
X90520361Y-113346009D02*
X90567980Y-113250771D01*
X90567980Y-113250771D02*
X90663218Y-113203152D01*
X90663218Y-113203152D02*
X90853694Y-113203152D01*
X90853694Y-113203152D02*
X90948932Y-113250771D01*
X90520361Y-113822200D02*
X90615599Y-113869819D01*
X90615599Y-113869819D02*
X90853694Y-113869819D01*
X90853694Y-113869819D02*
X90948932Y-113822200D01*
X90948932Y-113822200D02*
X90996551Y-113726961D01*
X90996551Y-113726961D02*
X90996551Y-113631723D01*
X90996551Y-113631723D02*
X90948932Y-113536485D01*
X90948932Y-113536485D02*
X90853694Y-113488866D01*
X90853694Y-113488866D02*
X90615599Y-113488866D01*
X90615599Y-113488866D02*
X90520361Y-113441247D01*
X90044170Y-113869819D02*
X90044170Y-113203152D01*
X90044170Y-112869819D02*
X90091789Y-112917438D01*
X90091789Y-112917438D02*
X90044170Y-112965057D01*
X90044170Y-112965057D02*
X89996551Y-112917438D01*
X89996551Y-112917438D02*
X90044170Y-112869819D01*
X90044170Y-112869819D02*
X90044170Y-112965057D01*
X89710837Y-113203152D02*
X89329885Y-113203152D01*
X89567980Y-112869819D02*
X89567980Y-113726961D01*
X89567980Y-113726961D02*
X89520361Y-113822200D01*
X89520361Y-113822200D02*
X89425123Y-113869819D01*
X89425123Y-113869819D02*
X89329885Y-113869819D01*
X88996551Y-113774580D02*
X88948932Y-113822200D01*
X88948932Y-113822200D02*
X88996551Y-113869819D01*
X88996551Y-113869819D02*
X89044170Y-113822200D01*
X89044170Y-113822200D02*
X88996551Y-113774580D01*
X88996551Y-113774580D02*
X88996551Y-113869819D01*
D11*
%TO.C,U1*%
X96025000Y-123890000D03*
D12*
X105525000Y-123890000D03*
%TD*%
M02*
