%TF.GenerationSoftware,KiCad,Pcbnew,10.0.0*%
%TF.CreationDate,2026-05-07T22:16:36-05:00*%
%TF.ProjectId,First PCB_led macondo,46697273-7420-4504-9342-5f6c6564206d,rev?*%
%TF.SameCoordinates,Original*%
%TF.FileFunction,Legend,Top*%
%TF.FilePolarity,Positive*%
%FSLAX46Y46*%
G04 Gerber Fmt 4.6, Leading zero omitted, Abs format (unit mm)*
G04 Created by KiCad (PCBNEW 10.0.0) date 2026-05-07 22:16:36*
%MOMM*%
%LPD*%
G01*
G04 APERTURE LIST*
%ADD10C,0.150000*%
%ADD11C,0.120000*%
%ADD12C,0.100000*%
G04 APERTURE END LIST*
D10*
X100013095Y-117039819D02*
X100013095Y-117849342D01*
X100013095Y-117849342D02*
X100060714Y-117944580D01*
X100060714Y-117944580D02*
X100108333Y-117992200D01*
X100108333Y-117992200D02*
X100203571Y-118039819D01*
X100203571Y-118039819D02*
X100394047Y-118039819D01*
X100394047Y-118039819D02*
X100489285Y-117992200D01*
X100489285Y-117992200D02*
X100536904Y-117944580D01*
X100536904Y-117944580D02*
X100584523Y-117849342D01*
X100584523Y-117849342D02*
X100584523Y-117039819D01*
X101584523Y-118039819D02*
X101013095Y-118039819D01*
X101298809Y-118039819D02*
X101298809Y-117039819D01*
X101298809Y-117039819D02*
X101203571Y-117182676D01*
X101203571Y-117182676D02*
X101108333Y-117277914D01*
X101108333Y-117277914D02*
X101013095Y-117325533D01*
X95988333Y-117004819D02*
X95655000Y-116528628D01*
X95416905Y-117004819D02*
X95416905Y-116004819D01*
X95416905Y-116004819D02*
X95797857Y-116004819D01*
X95797857Y-116004819D02*
X95893095Y-116052438D01*
X95893095Y-116052438D02*
X95940714Y-116100057D01*
X95940714Y-116100057D02*
X95988333Y-116195295D01*
X95988333Y-116195295D02*
X95988333Y-116338152D01*
X95988333Y-116338152D02*
X95940714Y-116433390D01*
X95940714Y-116433390D02*
X95893095Y-116481009D01*
X95893095Y-116481009D02*
X95797857Y-116528628D01*
X95797857Y-116528628D02*
X95416905Y-116528628D01*
X96940714Y-117004819D02*
X96369286Y-117004819D01*
X96655000Y-117004819D02*
X96655000Y-116004819D01*
X96655000Y-116004819D02*
X96559762Y-116147676D01*
X96559762Y-116147676D02*
X96464524Y-116242914D01*
X96464524Y-116242914D02*
X96369286Y-116290533D01*
X105169405Y-117004819D02*
X105169405Y-116004819D01*
X105169405Y-116004819D02*
X105407500Y-116004819D01*
X105407500Y-116004819D02*
X105550357Y-116052438D01*
X105550357Y-116052438D02*
X105645595Y-116147676D01*
X105645595Y-116147676D02*
X105693214Y-116242914D01*
X105693214Y-116242914D02*
X105740833Y-116433390D01*
X105740833Y-116433390D02*
X105740833Y-116576247D01*
X105740833Y-116576247D02*
X105693214Y-116766723D01*
X105693214Y-116766723D02*
X105645595Y-116861961D01*
X105645595Y-116861961D02*
X105550357Y-116957200D01*
X105550357Y-116957200D02*
X105407500Y-117004819D01*
X105407500Y-117004819D02*
X105169405Y-117004819D01*
X106693214Y-117004819D02*
X106121786Y-117004819D01*
X106407500Y-117004819D02*
X106407500Y-116004819D01*
X106407500Y-116004819D02*
X106312262Y-116147676D01*
X106312262Y-116147676D02*
X106217024Y-116242914D01*
X106217024Y-116242914D02*
X106121786Y-116290533D01*
%TO.C,U1*%
D11*
X90405000Y-118670000D02*
X95725000Y-118670000D01*
X90405000Y-136710000D02*
X90405000Y-118670000D01*
X96325000Y-118670000D02*
X111145000Y-118670000D01*
X111145000Y-118670000D02*
X111145000Y-136710000D01*
X111145000Y-136710000D02*
X90405000Y-136710000D01*
X96025000Y-118670000D02*
X95585000Y-118060000D01*
X96465000Y-118060000D01*
X96025000Y-118670000D01*
G36*
X96025000Y-118670000D02*
G01*
X95585000Y-118060000D01*
X96465000Y-118060000D01*
X96025000Y-118670000D01*
G37*
%TO.C,D1*%
D12*
X106992500Y-115500000D02*
G75*
G02*
X106892500Y-115500000I-50000J0D01*
G01*
X106892500Y-115500000D02*
G75*
G02*
X106992500Y-115500000I50000J0D01*
G01*
%TD*%
M02*
